<svg width="960" height="520" viewBox="0 0 960 520" fill="none" xmlns="http://www.w3.org/2000/svg">
<rect width="960" height="520" rx="26" fill="#12100b"/>
<rect x="28" y="26" width="904" height="468" rx="20" fill="#16130d" stroke="rgba(255,255,255,0.06)"/>
<rect x="60" y="62" width="320" height="160" rx="18" fill="url(#g1)" stroke="rgba(255,255,255,0.12)"/>
<rect x="412" y="62" width="488" height="340" rx="18" fill="#0d0b06" stroke="rgba(255,255,255,0.06)"/>
<rect x="412" y="62" width="488" height="72" rx="18" fill="url(#g2)"/>
<rect x="60" y="252" width="320" height="200" rx="18" fill="#0f0c08" stroke="rgba(255,255,255,0.06)"/>
<circle cx="520" cy="252" r="90" fill="rgba(251,191,36,0.1)" stroke="#fbbf24"/>
<circle cx="520" cy="252" r="48" fill="rgba(56,189,248,0.2)" stroke="rgba(56,189,248,0.6)"/>
<rect x="642" y="184" width="220" height="44" rx="12" fill="#16130d" stroke="rgba(255,255,255,0.08)"/>
<rect x="642" y="248" width="220" height="44" rx="12" fill="#16130d" stroke="rgba(255,255,255,0.08)"/>
<rect x="642" y="312" width="220" height="44" rx="12" fill="#16130d" stroke="rgba(255,255,255,0.08)"/>
<circle cx="126" cy="112" r="12" fill="#fbbf24"/>
<circle cx="156" cy="112" r="12" fill="#38bdf8"/>
<circle cx="186" cy="112" r="12" fill="#f59e0b"/>
<rect x="92" y="288" width="256" height="28" rx="8" fill="#16130d"/>
<rect x="92" y="332" width="256" height="28" rx="8" fill="#16130d"/>
<rect x="92" y="376" width="256" height="28" rx="8" fill="#16130d"/>
<defs>
<linearGradient id="g1" x1="60" y1="62" x2="380" y2="222" gradientUnits="userSpaceOnUse">
<stop stop-color="#fbbf24" stop-opacity="0.32"/>
<stop offset="1" stop-color="#38bdf8" stop-opacity="0.22"/>
</linearGradient>
<linearGradient id="g2" x1="412" y1="62" x2="900" y2="134" gradientUnits="userSpaceOnUse">
<stop stop-color="#0ea5e9" stop-opacity="0.22"/>
<stop offset="1" stop-color="#fbbf24" stop-opacity="0.24"/>
</linearGradient>
</defs>
</svg>
