<svg width="1519" height="314" viewBox="0 0 1519 314" fill="none" xmlns="http://www.w3.org/2000/svg">
<path d="M327.755 231.467C316.996 231.467 307.354 229.721 298.831 226.227C290.307 222.734 283.461 217.564 278.291 210.717C273.261 203.871 270.606 195.627 270.326 185.986H308.472C309.031 191.435 310.917 195.627 314.131 198.561C317.345 201.356 321.537 202.753 326.707 202.753C332.016 202.753 336.208 201.565 339.282 199.19C342.356 196.675 343.893 193.251 343.893 188.92C343.893 185.287 342.636 182.283 340.121 179.907C337.745 177.532 334.741 175.576 331.108 174.039C327.615 172.502 322.585 170.755 316.017 168.799C306.516 165.865 298.761 162.93 292.753 159.996C286.744 157.062 281.574 152.73 277.243 147.001C272.911 141.273 270.746 133.797 270.746 124.575C270.746 110.882 275.706 100.192 285.627 92.5073C295.547 84.6825 308.472 80.7701 324.401 80.7701C340.61 80.7701 353.674 84.6825 363.595 92.5073C373.516 100.192 378.825 110.951 379.524 124.785H340.749C340.47 120.034 338.723 116.331 335.51 113.676C332.296 110.882 328.174 109.484 323.144 109.484C318.812 109.484 315.319 110.672 312.664 113.047C310.009 115.283 308.682 118.567 308.682 122.898C308.682 127.649 310.917 131.352 315.389 134.007C319.86 136.661 326.846 139.526 336.348 142.6C345.849 145.814 353.535 148.888 359.403 151.822C365.411 154.756 370.581 159.018 374.913 164.607C379.245 170.196 381.41 177.392 381.41 186.195C381.41 194.579 379.245 202.194 374.913 209.041C370.721 215.887 364.573 221.337 356.469 225.389C348.365 229.441 338.793 231.467 327.755 231.467ZM544.313 111.79C558.845 111.79 570.372 116.191 578.896 124.994C587.559 133.797 591.89 146.023 591.89 161.673V230H556.26V166.493C556.26 158.948 554.234 153.149 550.181 149.097C546.269 144.905 540.82 142.81 533.833 142.81C526.847 142.81 521.328 144.905 517.275 149.097C513.363 153.149 511.407 158.948 511.407 166.493V230H475.776V166.493C475.776 158.948 473.75 153.149 469.698 149.097C465.786 144.905 460.336 142.81 453.35 142.81C446.363 142.81 440.844 144.905 436.792 149.097C432.879 153.149 430.923 158.948 430.923 166.493V230H395.083V113.047H430.923V127.719C434.556 122.828 439.307 118.986 445.176 116.191C451.044 113.257 457.681 111.79 465.087 111.79C473.89 111.79 481.715 113.676 488.561 117.449C495.548 121.221 500.997 126.601 504.909 133.587C508.962 127.16 514.481 121.92 521.467 117.868C528.454 113.816 536.069 111.79 544.313 111.79ZM601.446 171.314C601.446 159.297 603.682 148.748 608.153 139.666C612.764 130.583 618.982 123.597 626.807 118.706C634.632 113.816 643.365 111.371 653.006 111.371C661.25 111.371 668.446 113.047 674.594 116.401C680.882 119.754 685.703 124.156 689.056 129.605V113.047H724.896V230H689.056V213.442C685.563 218.892 680.672 223.293 674.385 226.647C668.237 230 661.041 231.677 652.797 231.677C643.295 231.677 634.632 229.231 626.807 224.341C618.982 219.311 612.764 212.255 608.153 203.172C603.682 193.95 601.446 183.331 601.446 171.314ZM689.056 171.524C689.056 162.581 686.541 155.525 681.511 150.355C676.62 145.185 670.612 142.6 663.486 142.6C656.36 142.6 650.281 145.185 645.251 150.355C640.361 155.385 637.916 162.371 637.916 171.314C637.916 180.257 640.361 187.383 645.251 192.693C650.281 197.862 656.36 200.447 663.486 200.447C670.612 200.447 676.62 197.862 681.511 192.693C686.541 187.523 689.056 180.466 689.056 171.524ZM778.282 132.539C782.474 126.112 787.714 121.082 794.001 117.449C800.289 113.676 807.276 111.79 814.961 111.79V149.726H805.11C796.167 149.726 789.46 151.682 784.989 155.595C780.518 159.367 778.282 166.074 778.282 175.716V230H742.442V113.047H778.282V132.539ZM896.898 199.609V230H878.664C865.669 230 855.539 226.856 848.273 220.568C841.007 214.141 837.374 203.731 837.374 189.339V142.81H823.122V113.047H837.374V84.5428H873.214V113.047H896.689V142.81H873.214V189.758C873.214 193.251 874.053 195.767 875.729 197.304C877.406 198.841 880.201 199.609 884.113 199.609H896.898Z" fill="#F5F1E1"/>
<path d="M1029.19 231.467C1018.43 231.467 1008.79 229.721 1000.27 226.227C991.745 222.734 984.898 217.564 979.728 210.717C974.698 203.871 972.043 195.627 971.764 185.986H1009.91C1010.47 191.435 1012.35 195.627 1015.57 198.561C1018.78 201.356 1022.97 202.753 1028.14 202.753C1033.45 202.753 1037.65 201.565 1040.72 199.19C1043.79 196.675 1045.33 193.251 1045.33 188.92C1045.33 185.287 1044.07 182.283 1041.56 179.907C1039.18 177.532 1036.18 175.576 1032.55 174.039C1029.05 172.502 1024.02 170.755 1017.45 168.799C1007.95 165.865 1000.2 162.93 994.19 159.996C988.182 157.062 983.012 152.73 978.68 147.001C974.349 141.273 972.183 133.797 972.183 124.575C972.183 110.882 977.143 100.192 987.064 92.5073C996.985 84.6825 1009.91 80.7701 1025.84 80.7701C1042.05 80.7701 1055.11 84.6825 1065.03 92.5073C1074.95 100.192 1080.26 110.951 1080.96 124.785H1042.19C1041.91 120.034 1040.16 116.331 1036.95 113.676C1033.73 110.882 1029.61 109.484 1024.58 109.484C1020.25 109.484 1016.76 110.672 1014.1 113.047C1011.45 115.283 1010.12 118.567 1010.12 122.898C1010.12 127.649 1012.35 131.352 1016.83 134.007C1021.3 136.661 1028.28 139.526 1037.79 142.6C1047.29 145.814 1054.97 148.888 1060.84 151.822C1066.85 154.756 1072.02 159.018 1076.35 164.607C1080.68 170.196 1082.85 177.392 1082.85 186.195C1082.85 194.579 1080.68 202.194 1076.35 209.041C1072.16 215.887 1066.01 221.337 1057.91 225.389C1049.8 229.441 1040.23 231.467 1029.19 231.467ZM1089.39 171.524C1089.39 159.367 1091.84 148.748 1096.73 139.666C1101.76 130.583 1108.68 123.597 1117.48 118.706C1126.42 113.816 1136.62 111.371 1148.08 111.371C1162.75 111.371 1174.98 115.213 1184.76 122.898C1194.68 130.583 1201.18 141.412 1204.25 155.385H1166.11C1162.89 146.442 1156.67 141.971 1147.45 141.971C1140.88 141.971 1135.64 144.556 1131.73 149.726C1127.82 154.756 1125.86 162.022 1125.86 171.524C1125.86 181.025 1127.82 188.361 1131.73 193.531C1135.64 198.561 1140.88 201.076 1147.45 201.076C1156.67 201.076 1162.89 196.605 1166.11 187.662H1204.25C1201.18 201.356 1194.68 212.115 1184.76 219.94C1174.84 227.764 1162.61 231.677 1148.08 231.677C1136.62 231.677 1126.42 229.231 1117.48 224.341C1108.68 219.451 1101.76 212.464 1096.73 203.382C1091.84 194.299 1089.39 183.68 1089.39 171.524ZM1207.91 171.314C1207.91 159.297 1210.15 148.748 1214.62 139.666C1219.23 130.583 1225.45 123.597 1233.27 118.706C1241.1 113.816 1249.83 111.371 1259.47 111.371C1267.72 111.371 1274.91 113.047 1281.06 116.401C1287.35 119.754 1292.17 124.156 1295.52 129.605V113.047H1331.36V230H1295.52V213.442C1292.03 218.892 1287.14 223.293 1280.85 226.647C1274.7 230 1267.51 231.677 1259.26 231.677C1249.76 231.677 1241.1 229.231 1233.27 224.341C1225.45 219.311 1219.23 212.255 1214.62 203.172C1210.15 193.95 1207.91 183.331 1207.91 171.314ZM1295.52 171.524C1295.52 162.581 1293.01 155.525 1287.98 150.355C1283.09 145.185 1277.08 142.6 1269.95 142.6C1262.83 142.6 1256.75 145.185 1251.72 150.355C1246.83 155.385 1244.38 162.371 1244.38 171.314C1244.38 180.257 1246.83 187.383 1251.72 192.693C1256.75 197.862 1262.83 200.447 1269.95 200.447C1277.08 200.447 1283.09 197.862 1287.98 192.693C1293.01 187.523 1295.52 180.466 1295.52 171.524ZM1384.75 74.9016V230H1348.91V74.9016H1384.75ZM1512.58 169.637C1512.58 172.991 1512.37 176.484 1511.95 180.117H1430.84C1431.4 187.383 1433.71 192.972 1437.76 196.884C1441.95 200.657 1447.05 202.543 1453.06 202.543C1462 202.543 1468.22 198.771 1471.71 191.225H1509.86C1507.9 198.91 1504.34 205.827 1499.17 211.975C1494.14 218.123 1487.78 222.944 1480.1 226.437C1472.41 229.93 1463.82 231.677 1454.32 231.677C1442.86 231.677 1432.66 229.231 1423.72 224.341C1414.77 219.451 1407.79 212.464 1402.76 203.382C1397.73 194.299 1395.21 183.68 1395.21 171.524C1395.21 159.367 1397.66 148.748 1402.55 139.666C1407.58 130.583 1414.56 123.597 1423.51 118.706C1432.45 113.816 1442.72 111.371 1454.32 111.371C1465.63 111.371 1475.69 113.746 1484.5 118.497C1493.3 123.248 1500.15 130.024 1505.04 138.827C1510.07 147.63 1512.58 157.9 1512.58 169.637ZM1475.9 160.206C1475.9 154.058 1473.81 149.167 1469.62 145.534C1465.42 141.901 1460.18 140.085 1453.9 140.085C1447.89 140.085 1442.79 141.831 1438.6 145.325C1434.54 148.818 1432.03 153.778 1431.05 160.206H1475.9Z" fill="#F5F1E1"/>
<rect x="919.18" y="146.715" width="37.2609" height="20.9592" fill="#F5F1E1"/>
<path d="M78.8578 117.051C80.5845 117.038 82.3111 117.028 84.0378 117.022C84.8404 117.019 85.6431 117.016 86.4457 117.009C92.1653 116.965 97.9045 117.115 103.55 118.12C103.832 118.168 104.114 118.216 104.395 118.264C106.685 118.657 108.953 119.138 111.214 119.675C111.805 119.813 112.397 119.944 112.99 120.074C118.529 121.295 123.854 123.072 129.116 125.17C129.322 125.252 129.322 125.252 129.531 125.335C131.25 126.021 132.942 126.745 134.614 127.54C134.797 127.626 134.98 127.712 135.168 127.8C137.236 128.775 139.292 129.77 141.319 130.829C141.47 130.907 141.621 130.986 141.776 131.067C142.7 131.555 143.599 132.076 144.49 132.622C144.925 132.88 145.367 133.115 145.816 133.348C148.326 134.702 150.688 136.383 153.015 138.028C153.218 138.17 153.421 138.313 153.623 138.455C156.07 140.178 158.45 141.995 160.744 143.917C160.838 143.996 160.933 144.075 161.031 144.157C162.227 145.157 163.405 146.172 164.56 147.22C164.94 147.565 165.325 147.904 165.712 148.241C165.958 148.456 166.203 148.67 166.448 148.885C166.575 148.996 166.703 149.108 166.834 149.223C168.094 150.34 169.29 151.515 170.479 152.708C170.808 153.038 171.137 153.366 171.467 153.695C172.532 154.76 173.57 155.832 174.545 156.982C174.816 157.281 175.088 157.58 175.361 157.879C176.172 158.777 176.926 159.711 177.673 160.662C177.907 160.953 178.14 161.245 178.374 161.536C178.631 161.858 178.888 162.18 179.145 162.502C179.294 162.689 179.443 162.875 179.597 163.068C182.107 166.224 184.431 169.489 186.58 172.9C186.951 173.48 187.337 174.049 187.727 174.616C187.978 175.015 187.978 175.015 188.246 175.553C188.519 176.098 188.822 176.596 189.151 177.108C190.331 178.99 191.349 180.968 192.394 182.928C192.485 183.098 192.576 183.268 192.669 183.443C192.92 183.911 193.169 184.379 193.418 184.848C193.526 185.052 193.526 185.052 193.637 185.259C194.052 186.047 194.43 186.844 194.786 187.66C194.971 188.083 195.161 188.503 195.353 188.924C196.738 191.976 198.075 195.042 199.202 198.201C199.307 198.493 199.307 198.493 199.414 198.792C201.021 203.308 201.021 203.308 201.618 205.55C201.654 205.686 201.691 205.823 201.729 205.964C201.916 206.703 202.07 207.38 201.963 208.137C201.605 208.636 201.605 208.636 201.123 209.126C200.967 209.287 200.811 209.448 200.651 209.614C200.566 209.7 200.481 209.787 200.393 209.876C200.098 210.187 199.82 210.509 199.542 210.835C198.764 211.73 197.929 212.567 197.088 213.403C196.822 213.669 196.557 213.935 196.292 214.201C195.33 215.163 194.349 216.088 193.314 216.97C193.049 217.207 192.785 217.445 192.52 217.683C189.502 220.359 186.216 222.704 182.825 224.883C182.699 224.964 182.572 225.046 182.442 225.13C176.966 228.637 171.129 231.329 165.014 233.5C164.496 233.689 163.988 233.891 163.479 234.103C162.468 234.513 161.431 234.795 160.376 235.072C160.169 235.127 159.962 235.182 159.748 235.239C148.71 238.131 148.71 238.131 143.446 238.131C143.417 238.254 143.388 238.376 143.358 238.501C143.024 239.813 142.561 241.003 141.986 242.226C141.897 242.416 141.809 242.606 141.717 242.802C139.679 247.133 137.399 251.31 134.483 255.118C134.25 255.424 134.019 255.731 133.789 256.039C131.18 259.506 128.224 262.904 124.927 265.73C124.599 266.011 124.274 266.296 123.95 266.582C113.021 276.211 98.1645 282.065 83.5744 282.009C82.9447 282.007 82.3153 282.012 81.6856 282.018C78.3102 282.03 75.9609 281.6 73.4863 279.179C73.1554 278.842 72.8259 278.505 72.4979 278.166C72.1684 277.828 71.8385 277.491 71.5081 277.154C71.3645 277.006 71.2208 276.858 71.0728 276.706C70.6804 276.323 70.2837 275.963 69.8693 275.605C69.121 274.957 68.4206 274.27 67.7251 273.565C67.5374 273.377 67.5374 273.377 67.3459 273.184C66.8175 272.653 66.2901 272.12 65.7627 271.588C65.3745 271.196 64.9857 270.805 64.5968 270.414C64.4802 270.296 64.3637 270.178 64.2435 270.056C63.6869 269.497 63.1231 268.958 62.5235 268.444C61.6274 267.67 60.7975 266.831 59.9641 265.991C59.6734 265.698 59.3821 265.405 59.0907 265.113C58.3675 264.387 57.6453 263.661 56.923 262.934C56.3105 262.318 55.6976 261.702 55.0842 261.087C54.7996 260.801 54.5157 260.515 54.2317 260.229C53.3754 259.368 52.5092 258.532 51.5867 257.742C51.0449 257.268 50.5418 256.758 50.0368 256.245C49.928 256.136 49.8192 256.026 49.7071 255.913C49.2491 255.452 48.7921 254.99 48.335 254.528C46.6743 252.84 46.6743 252.84 44.9168 251.254C44.4858 250.889 44.0927 250.509 43.7113 250.092C43.7113 249.971 43.7113 249.849 43.7113 249.724C43.6008 249.676 43.4903 249.628 43.3764 249.578C42.9506 249.343 42.7444 249.127 42.4463 248.747C41.9346 248.124 41.3932 247.654 40.7671 247.148C40.4579 246.844 40.1517 246.537 39.8471 246.228C39.6512 246.031 39.4553 245.834 39.2592 245.637C39.1535 245.531 39.0478 245.425 38.9389 245.315C38.4596 244.833 37.9798 244.352 37.5 243.871C37.2484 243.618 36.997 243.366 36.7458 243.113C36.3795 242.744 36.0127 242.376 35.6457 242.009C35.5354 241.897 35.4251 241.786 35.3115 241.672C34.7754 241.135 34.2317 240.62 33.6548 240.128C32.6668 239.273 31.7554 238.341 30.8355 237.414C30.5015 237.078 30.1669 236.742 29.8322 236.407C29.0015 235.573 28.1717 234.739 27.342 233.905C26.6387 233.198 25.935 232.492 25.2309 231.786C24.9035 231.457 24.5767 231.128 24.25 230.799C23.3248 229.869 22.3958 228.956 21.3974 228.105C20.8668 227.643 20.3741 227.146 19.8795 226.646C19.7735 226.54 19.6675 226.434 19.5582 226.324C19.2247 225.99 18.8919 225.655 18.5591 225.32C18.3342 225.094 18.1094 224.868 17.8845 224.642C17.4716 224.228 17.0589 223.813 16.6466 223.398C16.5091 223.26 16.5091 223.26 16.3688 223.119C16.1346 222.884 15.9011 222.647 15.6678 222.411C15.1735 221.923 14.6687 221.448 14.1606 220.975C12.3409 219.279 10.5799 217.529 8.82937 215.762C8.28914 215.217 7.74827 214.673 7.20703 214.129C7.08759 214.008 6.96815 213.887 6.84509 213.762C6.14434 213.058 5.42105 212.393 4.66896 211.743C3.88887 211.062 3.16719 210.318 2.43491 209.586C2.27065 209.424 2.10638 209.262 1.93714 209.095C1.77952 208.938 1.6219 208.781 1.4595 208.619C1.24661 208.407 1.24661 208.407 1.02943 208.191C0.353079 207.435 -0.0367024 206.805 0.0165548 205.758C0.384856 204.082 2.44117 202.618 3.62048 201.444C3.8667 201.198 4.11285 200.951 4.35892 200.705C5.02457 200.038 5.69135 199.373 6.35838 198.708C7.05798 198.01 7.7566 197.311 8.45535 196.612C9.62878 195.439 10.8029 194.266 11.9775 193.094C13.3332 191.741 14.688 190.387 16.0421 189.033C17.487 187.588 18.9326 186.144 20.3784 184.7C20.7935 184.285 21.2085 183.87 21.6235 183.455C22.277 182.802 22.9311 182.149 23.5854 181.496C23.8247 181.258 24.0639 181.019 24.3029 180.78C26.4965 178.585 26.4965 178.585 27.6025 177.655C28.0421 177.271 28.418 176.831 28.8063 176.395C29.5894 175.615 29.5894 175.615 30.1059 175.433C31.1461 175.456 31.8399 176.238 32.5441 176.926C32.9346 177.306 33.3293 177.665 33.7409 178.022C34.5028 178.684 35.2388 179.37 35.9713 180.064C36.2451 180.323 36.519 180.581 36.7929 180.84C36.9321 180.972 37.0713 181.103 37.2147 181.239C37.6353 181.636 38.0571 182.032 38.4792 182.427C39.8147 183.679 41.1411 184.933 42.4233 186.24C43.1852 187.014 43.9746 187.754 44.7694 188.494C45.8488 189.502 46.9098 190.521 47.9436 191.576C48.0955 191.728 48.2473 191.88 48.4037 192.036C48.682 192.314 48.9594 192.594 49.2353 192.874C49.8976 193.544 50.5603 194.198 51.2789 194.808C51.8908 195.333 52.4073 195.899 52.9278 196.514C53.4678 197.125 54.0528 197.689 54.6371 198.258C55.0136 198.644 55.3658 199.032 55.7168 199.44C56.4691 200.307 57.2737 201.117 58.0874 201.927C58.2318 202.072 58.3763 202.217 58.5251 202.367C59.2048 203.045 59.8841 203.68 60.6406 204.273C60.8346 204.486 61.0227 204.705 61.2041 204.929C61.7401 205.558 62.3159 206.11 62.9314 206.662C64.1573 207.772 65.3212 208.939 66.483 210.115C67.6908 211.339 68.8965 212.546 70.2092 213.658C70.4222 213.846 70.6347 214.034 70.8468 214.223C72.4241 215.614 74.0579 216.908 75.7396 218.171C76.0577 218.412 76.3722 218.656 76.6849 218.904C79.6897 221.274 82.9113 223.332 86.2184 225.251C86.3795 225.345 86.5407 225.439 86.7067 225.536C89.9558 227.433 93.2647 229.072 96.7071 230.587C96.833 230.643 96.959 230.698 97.0887 230.755C98.4783 231.367 99.8746 231.926 101.307 232.427C101.585 232.527 101.863 232.626 102.141 232.726C108.333 234.937 114.687 236.415 121.181 237.395C121.305 237.414 121.428 237.433 121.556 237.453C125.854 238.111 130.137 238.197 134.476 238.189C134.609 238.189 134.742 238.189 134.878 238.188C137.799 238.183 140.716 238.162 143.63 237.947C144.875 233.831 146.045 229.745 146.77 225.504C146.798 225.343 146.826 225.182 146.854 225.016C146.952 224.42 147.04 223.824 147.127 223.226C147.149 223.077 147.172 222.927 147.195 222.772C147.602 220.036 147.762 217.356 147.741 214.591C147.736 213.977 147.737 213.364 147.738 212.751C147.734 209.384 147.45 206.108 146.885 202.789C146.826 202.437 146.826 202.437 146.765 202.076C146.46 200.316 146.063 198.602 145.567 196.886C145.434 196.416 145.327 195.94 145.218 195.463C144.367 192.078 143.018 188.871 141.606 185.688C141.533 185.52 141.459 185.352 141.383 185.179C138.784 179.306 135.097 174.057 131.049 169.104C130.946 168.977 130.843 168.851 130.737 168.721C130.134 167.99 129.501 167.311 128.825 166.648C128.397 166.223 128.017 165.762 127.634 165.297C127.314 164.958 126.995 164.671 126.64 164.371C125.634 163.495 124.701 162.547 123.762 161.601C123.428 161.265 123.094 160.929 122.759 160.593C121.928 159.76 121.098 158.926 120.269 158.092C119.565 157.385 118.862 156.678 118.157 155.972C117.83 155.644 117.503 155.315 117.177 154.985C116.247 154.052 115.318 153.128 114.31 152.278C113.749 151.792 113.235 151.256 112.716 150.725C112.564 150.573 112.413 150.422 112.256 150.265C112.104 150.113 111.953 149.962 111.796 149.805C111.694 149.705 111.591 149.604 111.486 149.501C110.981 149.004 110.507 148.515 110.06 147.965C109.701 147.546 109.393 147.235 108.977 146.888C107.932 145.983 106.968 144.998 105.995 144.017C105.642 143.663 105.289 143.308 104.936 142.954C104.059 142.075 103.183 141.195 102.307 140.314C101.565 139.568 100.822 138.823 100.079 138.078C99.7337 137.731 99.3886 137.384 99.0435 137.036C98.8289 136.821 98.6142 136.606 98.3995 136.391C98.3056 136.296 98.2117 136.201 98.115 136.103C97.6085 135.597 97.0888 135.115 96.5463 134.647C95.754 133.961 95.0136 133.23 94.2751 132.486C94.1318 132.343 93.9886 132.199 93.841 132.051C93.5325 131.742 93.2242 131.433 92.9161 131.123C92.4275 130.632 91.9383 130.142 91.4489 129.651C90.3222 128.522 89.1963 127.392 88.0705 126.263C86.9552 125.143 85.8395 124.024 84.7231 122.906C84.2429 122.424 83.7632 121.942 83.2835 121.46C82.987 121.163 82.6905 120.866 82.394 120.569C82.2622 120.436 82.1305 120.304 81.9947 120.167C81.2669 119.439 80.5223 118.749 79.7327 118.088C79.391 117.769 79.1271 117.432 78.8578 117.051Z" fill="#F9B920"/>
<path d="M117.952 32.1525C118.39 32.1517 118.827 32.1449 119.265 32.138C122.477 32.1134 124.763 33.0035 127.081 35.2339C127.202 35.3481 127.322 35.4623 127.447 35.58C128.854 36.9247 130.224 38.3088 131.592 39.6936C132.467 40.5777 133.35 41.4395 134.296 42.2482C134.772 42.663 135.208 43.1088 135.649 43.5605C136.167 44.087 136.681 44.6064 137.26 45.0671C137.707 45.44 138.046 45.832 138.409 46.2848C138.684 46.598 138.977 46.8567 139.295 47.1258C140.399 48.0655 141.401 49.1135 142.42 50.1437C142.683 50.4094 142.947 50.6739 143.211 50.9383C143.459 51.1859 143.706 51.4343 143.951 51.6844C144.504 52.2475 145.069 52.7853 145.667 53.3017C146.307 53.8561 146.918 54.4177 147.495 55.0383C147.495 55.1598 147.495 55.2812 147.495 55.4064C147.604 55.4548 147.712 55.5033 147.824 55.5532C148.249 55.784 148.52 56.0232 148.855 56.3688C148.971 56.4864 149.086 56.6039 149.205 56.725C149.324 56.8478 149.443 56.9705 149.565 57.097C149.8 57.3378 150.035 57.5781 150.27 57.8179C150.373 57.9245 150.476 58.031 150.583 58.1408C150.935 58.4804 151.295 58.7988 151.666 59.1178C152.54 59.8772 153.352 60.6911 154.166 61.5133C154.403 61.751 154.403 61.751 154.644 61.9936C155.313 62.6657 155.981 63.3389 156.649 64.012C157.14 64.5059 157.631 64.9993 158.122 65.4926C158.345 65.718 158.345 65.718 158.573 65.9481C159.345 66.7237 160.133 67.4652 160.963 68.179C161.449 68.6051 161.9 69.0576 162.354 69.5179C162.493 69.6576 162.493 69.6576 162.635 69.8001C163.022 70.1908 163.409 70.5826 163.796 70.9743C165.29 72.4867 165.29 72.4867 166.877 73.8997C167.227 74.2141 167.524 74.5533 167.829 74.9117C168.228 75.3814 168.626 75.7946 169.1 76.1883C170.353 77.2697 171.492 78.4733 172.655 79.6497C172.967 79.9646 173.279 80.2789 173.591 80.5932C173.683 80.6871 173.776 80.7811 173.871 80.8779C174.381 81.3913 174.905 81.8781 175.452 82.3513C176.184 82.9847 176.868 83.6546 177.548 84.3431C177.669 84.4653 177.791 84.5875 177.916 84.7134C178.299 85.0991 178.682 85.4855 179.065 85.872C179.571 86.3827 180.077 86.8927 180.584 87.4024C180.697 87.5174 180.811 87.6324 180.928 87.751C181.56 88.3867 182.211 88.9824 182.896 89.5599C183.325 89.9303 183.719 90.331 184.114 90.7369C184.275 90.8993 184.437 91.0618 184.603 91.2292C184.688 91.314 184.772 91.3988 184.858 91.4861C185.238 91.8686 185.619 92.2505 185.999 92.6325C186.199 92.8327 186.398 93.0331 186.597 93.2336C187.639 94.2835 188.684 95.3067 189.818 96.2573C190.127 96.5616 190.434 96.8688 190.738 97.1773C190.962 97.4025 191.187 97.6276 191.411 97.8526C191.535 97.9773 191.659 98.102 191.787 98.2305C192.35 98.7965 192.915 99.3621 193.479 99.9277C193.775 100.225 194.071 100.522 194.367 100.819C194.797 101.252 195.228 101.684 195.659 102.116C195.789 102.247 195.919 102.378 196.054 102.514C196.785 103.244 197.533 103.943 198.318 104.615C198.879 105.105 199.403 105.631 199.928 106.159C200.033 106.265 200.139 106.37 200.249 106.478C201.177 107.409 201.177 107.409 201.319 108.138C201.175 109.129 200.59 109.689 199.939 110.426C199.849 110.528 199.76 110.63 199.667 110.735C199.373 111.067 199.076 111.397 198.777 111.726C198.68 111.833 198.583 111.941 198.483 112.052C198.24 112.315 197.986 112.568 197.731 112.818C197.609 112.818 197.488 112.818 197.363 112.818C197.346 112.928 197.328 113.037 197.311 113.15C197.148 113.65 196.95 113.807 196.543 114.134C195.615 114.91 194.775 115.758 193.926 116.619C193.588 116.958 193.251 117.298 192.914 117.638C192.386 118.169 191.859 118.702 191.333 119.235C190.822 119.751 190.309 120.267 189.797 120.782C189.638 120.943 189.48 121.104 189.316 121.27C189.097 121.49 189.097 121.49 188.873 121.715C188.744 121.845 188.616 121.975 188.483 122.109C188.162 122.387 188.162 122.387 187.794 122.387C187.752 122.492 187.709 122.596 187.666 122.704C187.363 123.234 186.999 123.541 186.538 123.943C185.455 124.908 184.427 125.922 183.404 126.95C183.161 127.194 183.161 127.194 182.913 127.443C182.408 127.95 181.904 128.458 181.4 128.966C180.73 129.64 180.06 130.314 179.39 130.987C179.239 131.139 179.089 131.291 178.934 131.448C178.158 132.227 177.367 132.972 176.534 133.689C176.053 134.11 175.607 134.557 175.158 135.012C175.068 135.103 174.977 135.194 174.885 135.287C174.602 135.572 174.321 135.857 174.039 136.142C173.665 136.521 173.29 136.9 172.915 137.278C172.751 137.444 172.587 137.61 172.418 137.782C171.789 138.385 171.433 138.726 170.566 138.891C168.839 138.833 167.352 136.726 166.228 135.595C165.831 135.195 165.434 134.797 165.037 134.398C164.828 134.189 164.62 133.979 164.413 133.77C163.345 132.694 162.276 131.641 161.112 130.668C160.804 130.363 160.497 130.056 160.192 129.748C159.963 129.517 159.963 129.517 159.728 129.282C159.483 129.036 159.483 129.036 159.233 128.785C158.306 127.855 157.378 126.925 156.45 125.996C155.891 125.436 155.331 124.875 154.772 124.314C154.229 123.768 153.685 123.223 153.14 122.678C152.935 122.472 152.729 122.266 152.523 122.059C151.536 121.068 150.547 120.091 149.484 119.181C148.907 118.677 148.371 118.133 147.832 117.59C147.714 117.471 147.596 117.353 147.474 117.231C147.101 116.857 146.729 116.482 146.357 116.108C146.105 115.855 145.854 115.603 145.602 115.351C145.141 114.888 144.68 114.425 144.219 113.961C144.118 113.86 144.017 113.758 143.913 113.654C143.664 113.404 143.417 113.153 143.169 112.903C142.73 112.469 142.281 112.049 141.826 111.631C139.986 109.937 138.227 108.165 136.466 106.389C135.871 105.789 135.275 105.19 134.678 104.59C134.546 104.456 134.413 104.322 134.276 104.184C133.538 103.442 132.782 102.734 131.987 102.053C131.553 101.675 131.151 101.27 130.75 100.858C129.981 100.082 129.19 99.3566 128.358 98.6494C128.158 98.4768 127.958 98.304 127.758 98.1312C123.083 94.0913 118.068 90.6885 112.717 87.6087C112.568 87.523 112.42 87.4373 112.267 87.349C110.423 86.2908 108.552 85.3296 106.616 84.4508C106.313 84.313 106.011 84.1733 105.709 84.0333C102.339 82.4787 98.8714 81.1731 95.3391 80.0411C95.1915 79.9935 95.0438 79.9458 94.8917 79.8967C91.1587 78.6739 91.1587 78.6739 87.3231 77.856C87.3231 77.7345 87.3231 77.6131 87.3231 77.4879C87.1107 77.4933 86.8984 77.4988 86.6796 77.5043C85.8895 77.5037 85.1411 77.384 84.3688 77.2256C84.0785 77.1693 83.7882 77.1134 83.4978 77.0578C83.3457 77.0284 83.1936 76.999 83.0369 76.9688C77.5401 75.9231 72.0488 75.6051 66.4606 75.5903C66.2957 75.5896 66.1308 75.5889 65.9608 75.5881C64.1787 75.5843 62.4 75.6349 60.6225 75.7664C60.4662 75.7744 60.3099 75.7825 60.1489 75.7908C59.7324 75.8276 59.3777 75.8721 58.985 76.0158C58.6009 76.4997 58.6009 76.4997 58.433 77.1199C58.3643 77.3096 58.2956 77.4992 58.2248 77.6946C58.0035 78.3954 57.7837 79.0964 57.5704 79.7996C57.5304 79.9314 57.4904 80.0631 57.4492 80.1989C56.0295 84.9142 55.0322 89.6699 54.6269 94.5804C54.5656 95.1837 54.4722 95.7766 54.3754 96.3752C54.1439 97.9504 54.136 99.5104 54.1432 101.099C54.1435 101.255 54.1439 101.41 54.1442 101.57C54.1709 108.992 55.0404 116.661 57.8148 123.59C57.994 124.046 58.154 124.493 58.3036 124.959C59.5044 128.608 61.0638 132.157 63.0333 135.452C63.2176 135.769 63.4016 136.085 63.5854 136.402C64.6614 138.243 65.8067 140.001 67.0816 141.709C67.2109 141.886 67.3402 142.064 67.4734 142.247C69.0441 144.385 70.6944 146.513 72.6128 148.35C72.9698 148.701 73.2915 149.066 73.6141 149.449C74.1936 150.126 74.8376 150.694 75.511 151.276C76.0087 151.732 76.4324 152.23 76.8666 152.745C77.1717 153.083 77.4791 153.367 77.8288 153.658C78.8448 154.536 79.7821 155.493 80.7276 156.445C81.0677 156.787 81.4085 157.129 81.7495 157.471C82.5955 158.32 83.4406 159.169 84.2857 160.019C85.002 160.739 85.7186 161.458 86.4358 162.177C86.7692 162.512 87.1021 162.847 87.435 163.182C88.3799 164.131 89.3236 165.07 90.3522 165.93C90.806 166.334 91.1668 166.82 91.5554 167.286C91.7729 167.482 91.994 167.674 92.2176 167.863C93.0735 168.604 93.8711 169.395 94.6685 170.197C94.8194 170.349 94.9704 170.5 95.1259 170.656C95.6038 171.135 96.081 171.614 96.5582 172.094C96.8805 172.417 97.2029 172.74 97.5254 173.063C98.2434 173.783 98.961 174.504 99.6783 175.224C99.9676 175.514 100.257 175.804 100.547 176.094C100.844 176.391 101.139 176.689 101.434 176.987C102.476 178.056 102.476 178.056 103.597 179.04C104.068 179.431 104.068 179.431 104.425 179.88C104.751 180.285 105.052 180.574 105.448 180.903C105.836 181.226 106.133 181.506 106.449 181.904C106.783 182.319 107.099 182.621 107.502 182.964C108.26 183.62 108.972 184.311 109.678 185.023C109.807 185.152 109.936 185.281 110.068 185.414C110.345 185.692 110.622 185.97 110.899 186.248C111.336 186.687 111.774 187.126 112.212 187.565C113.14 188.495 114.067 189.426 114.994 190.357C116.072 191.44 117.151 192.522 118.231 193.604C118.663 194.037 119.094 194.471 119.526 194.905C119.789 195.168 120.052 195.432 120.315 195.696C120.435 195.817 120.555 195.938 120.679 196.063C120.789 196.173 120.899 196.283 121.012 196.396C121.155 196.54 121.155 196.54 121.301 196.686C121.55 196.934 121.55 196.934 121.918 197.096C121.918 197.218 121.918 197.339 121.918 197.464C111.039 197.639 100.547 196.882 89.8992 194.52C89.7658 194.492 89.6323 194.463 89.4948 194.434C86.4722 193.782 83.4901 192.923 80.5711 191.906C79.5897 191.568 78.6025 191.248 77.6169 190.922C76.6728 190.609 75.7389 190.276 74.8102 189.92C74.6807 189.871 74.5513 189.822 74.4179 189.771C72.909 189.196 71.4143 188.611 69.9518 187.925C69.439 187.696 68.92 187.503 68.3927 187.309C65.5537 186.233 62.8481 184.795 60.1783 183.357C59.6949 183.097 59.2102 182.84 58.7255 182.582C56.4777 181.381 54.3073 180.094 52.1766 178.695C51.9362 178.538 51.9362 178.538 51.691 178.377C46.5825 175.022 41.6616 171.407 37.1342 167.294C36.762 166.957 36.3857 166.626 36.0064 166.297C34.1024 164.633 32.291 162.887 30.5062 161.097C30.1274 160.717 29.7477 160.339 29.3679 159.96C29.1221 159.714 28.8764 159.468 28.6308 159.222C28.5196 159.111 28.4084 159 28.2938 158.886C27.5089 158.097 26.7714 157.274 26.0467 156.43C25.951 156.319 25.8553 156.208 25.7567 156.093C25.1146 155.349 24.4769 154.601 23.8385 153.853C23.7472 153.747 23.6558 153.64 23.5617 153.53C22.5198 152.311 21.4932 151.085 20.5263 149.805C20.4474 149.701 20.3684 149.597 20.2871 149.49C18.3248 146.9 16.4405 144.283 14.6979 141.54C14.471 141.183 14.2426 140.827 14.014 140.471C12.6564 138.342 11.41 136.148 10.1572 133.957C9.91012 133.526 9.66058 133.098 9.40788 132.671C8.39797 130.952 7.55702 129.165 6.72531 127.355C6.63826 127.168 6.5512 126.98 6.46151 126.786C6.23942 126.303 6.02212 125.817 5.80525 125.331C5.71606 125.137 5.62687 124.943 5.53498 124.743C3.48014 120.213 1.72139 115.425 0.468865 110.61C0.427355 110.453 0.385844 110.297 0.343075 110.135C0.236439 109.68 0.161047 109.234 0.100839 108.77C0.0745096 108.569 0.0481799 108.369 0.0210523 108.162C-0.0922156 106.569 0.241371 105.726 1.27033 104.517C1.43092 104.342 1.5915 104.166 1.75696 103.986C1.96083 103.748 1.96083 103.748 2.16883 103.506C3.26733 102.26 4.44783 101.089 5.61713 99.9096C5.80082 99.7243 5.98425 99.5387 6.1674 99.3529C7.3927 98.112 8.67076 96.9749 10.0375 95.8892C10.2394 95.7215 10.4406 95.553 10.6406 95.3832C15.6254 91.167 21.2806 87.5163 27.1508 84.6644C27.3514 84.5613 27.5521 84.4581 27.7589 84.3518C28.9718 83.7285 30.1963 83.1596 31.4521 82.6288C31.5841 82.5728 31.7162 82.5169 31.8522 82.4592C34.2221 81.4724 36.643 80.6127 39.0771 79.7996C39.2065 79.7563 39.3359 79.713 39.4692 79.6685C41.2721 79.0683 43.0798 78.5173 44.9195 78.04C45.2025 77.9665 45.2025 77.9665 45.4912 77.8916C47.9918 77.266 50.5428 76.8582 53.0835 76.4326C53.5131 76.3604 53.9424 76.287 54.3718 76.2135C55.9073 75.9541 57.4283 75.7393 58.985 75.6478C59.0314 75.481 59.0314 75.481 59.0787 75.3108C59.4125 74.1503 59.8251 73.0507 60.3076 71.9445C60.4169 71.6925 60.4169 71.6925 60.5283 71.4354C61.1883 69.9281 61.898 68.4545 62.6653 66.9992C62.7298 66.875 62.7944 66.7508 62.8609 66.6228C63.8053 64.816 64.8631 63.0977 65.989 61.3983C66.1084 61.2175 66.2277 61.0368 66.3506 60.8506C67.0936 59.7449 67.8882 58.7048 68.7443 57.6841C69.0538 57.3094 69.3428 56.93 69.6233 56.5334C70.3036 55.6099 71.1028 54.7913 71.8854 53.9551C72.3033 53.5081 72.7095 53.0532 73.108 52.5887C73.7586 51.839 74.4265 51.0877 75.1782 50.438C75.2996 50.438 75.4211 50.438 75.5462 50.438C75.5462 50.3166 75.5462 50.1951 75.5462 50.07C75.8553 49.7523 75.8553 49.7523 76.2593 49.4029C76.3916 49.2867 76.524 49.1705 76.6604 49.0507C77.0183 48.7819 77.0183 48.7819 77.3863 48.7819C77.3863 48.6604 77.3863 48.539 77.3863 48.4139C77.6631 48.1565 77.9536 47.9137 78.2489 47.6778C78.4335 47.5303 78.618 47.3827 78.8081 47.2307C79.0088 47.0728 79.2095 46.9152 79.4105 46.7577C79.5098 46.6796 79.6092 46.6015 79.7115 46.5211C80.9933 45.516 82.2906 44.5385 83.6428 43.6295C83.8004 43.5226 83.8004 43.5226 83.9612 43.4135C86.0156 42.0263 88.1465 40.8182 90.3347 39.6557C90.7876 39.4141 91.2383 39.1689 91.6883 38.9221C93.2031 38.0962 94.7068 37.3905 96.3397 36.821C96.5971 36.7296 96.8544 36.6381 97.1117 36.5464C97.6526 36.3543 98.1942 36.164 98.7362 35.975C99.3059 35.7756 99.8702 35.5646 100.434 35.3489C103.071 34.3997 105.78 33.7587 108.519 33.1868C108.648 33.1594 108.777 33.1321 108.909 33.1039C111.911 32.4708 114.884 32.1519 117.952 32.1525Z" fill="#F8BA20"/>
</svg>
